PathFileType   4   (X/Y/Z)
DataRate  CameraRate  NumFrames  NumMarkers  Units  OrigDataRate  OrigDataStartFrame  OrigNumFrames  
  120.0      120.0        4         39         mm      120.0          211        240
Frame#      Time	midhip		hip_r		hip_l		knee_r		knee_l		ankle_r		ankle_l		midasis		asis_r		asis_l		psis_r		psis_l		epicondLat_r		epicondLat_l		epicondMed_r		epicondMed_l		malleolusLat_r		malleolusLat_l		malleolusMedv_r		malleolusMedv_l		heel_r		heel_l		sternalnotch		xyphoidprocess		neck		subclavicle_r		subclavicle_l		toe_r		toe_l		thighwand_r		thighwand_l		upperleg1_r		upperleg1_l		upperleg2_r		upperleg2_l		shankwand_r		shankwand_l		lowerleg1_r		lowerleg1_l		
              X1          Y1          Z1          X2          Y2          Z2          X3          Y3          Z3          X4          Y4          Z4          X5          Y5          Z5          X6          Y6          Z6          X7          Y7          Z7          X8          Y8          Z8          X9          Y9          Z9          X10          Y10          Z10          X11          Y11          Z11          X12          Y12          Z12          X13          Y13          Z13          X14          Y14          Z14          X15          Y15          Z15          X16          Y16          Z16          X17          Y17          Z17          X18          Y18          Z18          X19          Y19          Z19          X20          Y20          Z20          X21          Y21          Z21          X22          Y22          Z22          X23          Y23          Z23          X24          Y24          Z24          X25          Y25          Z25          X26          Y26          Z26          X27          Y27          Z27          X28          Y28          Z28          X29          Y29          Z29          X30          Y30          Z30          X31          Y31          Z31          X32          Y32          Z32          X33          Y33          Z33          X34          Y34          Z34          X35          Y35          Z35          X36          Y36          Z36          X37          Y37          Z37          X38          Y38          Z38          X39          Y39          Z39          

	211	1.75833	755.941	762.742	-250.625	763.455	760.780	-181.017	748.428	764.703	-320.232	756.534	424.395	-164.977	738.419	419.002	-324.031	722.044	64.211	-157.834	716.110	65.968	-330.415	825.534	846.750	-255.769	837.455	843.638	-145.330	813.614	849.863	-366.207	648.480	868.028	-204.290	642.715	867.028	-257.441	757.386	427.069	-108.547	733.454	419.759	-379.805	740.705	416.778	-219.823	751.065	422.199	-264.794	715.925	65.531	-120.860	703.634	67.376	-364.688	720.698	60.655	-191.414	717.120	65.592	-296.711	675.746	50.722	-148.960	670.126	46.964	-308.811	790.645	1196.778	-259.311	802.707	1095.498	-265.380	682.800	1261.820	-239.058	799.983	1195.965	-202.796	787.606	1198.254	-310.321	806.151	48.223	-144.730	804.258	44.769	-351.415	889.943	556.371	-154.094	856.278	573.766	-396.088	840.977	600.219	-118.983	843.094	615.166	-326.300	826.240	544.601	-117.099	831.502	557.961	-321.671	846.356	181.025	-136.358	694.922	173.642	-450.363	768.991	166.657	-150.354	707.302	161.854	-372.475
	212	1.76667	755.827	762.727	-250.592	763.354	760.763	-180.986	748.299	764.690	-320.197	756.532	424.375	-164.939	738.435	419.047	-323.977	722.067	64.230	-157.829	716.169	65.940	-330.411	825.424	846.732	-255.749	837.364	843.617	-145.343	813.483	849.846	-366.155	648.416	867.984	-204.232	642.602	867.049	-257.348	757.395	427.050	-108.509	733.399	419.801	-379.745	740.851	417.097	-220.374	751.285	422.115	-264.902	715.954	65.545	-120.854	703.650	67.354	-364.668	720.876	60.579	-191.400	717.176	65.582	-296.703	675.624	51.005	-149.128	669.954	46.935	-308.779	790.605	1196.778	-259.334	802.661	1095.501	-265.464	682.597	1261.915	-239.034	799.922	1195.919	-202.832	787.594	1198.293	-310.300	806.128	48.204	-144.755	804.289	44.778	-351.426	889.943	556.414	-154.082	856.183	573.756	-396.029	841.007	600.177	-118.758	843.134	615.253	-326.160	826.252	544.548	-117.085	831.591	558.020	-321.606	846.369	181.009	-136.366	694.931	173.622	-450.331	769.183	166.647	-150.432	707.359	161.907	-372.437
	213	1.77500	755.713	762.714	-250.575	763.248	760.743	-180.971	748.178	764.684	-320.180	756.510	424.383	-164.909	738.428	419.111	-323.946	722.091	64.241	-157.821	716.232	65.912	-330.409	825.309	846.720	-255.731	837.258	843.595	-145.349	813.360	849.844	-366.112	648.338	867.919	-204.197	642.465	867.081	-257.235	757.387	427.060	-108.479	733.328	419.862	-379.708	740.396	417.610	-220.602	751.494	422.069	-264.743	715.986	65.552	-120.845	703.673	67.328	-364.651	720.910	60.472	-191.366	717.194	65.579	-296.688	675.653	50.948	-149.141	669.835	46.933	-308.696	790.560	1196.771	-259.356	802.676	1095.504	-265.460	682.457	1261.949	-238.957	799.917	1195.956	-202.933	787.557	1198.265	-310.295	806.108	48.198	-144.790	804.300	44.791	-351.422	889.925	556.452	-154.069	856.089	573.765	-396.017	841.208	600.193	-118.686	843.041	615.283	-326.151	826.262	544.555	-117.112	831.564	558.074	-321.590	846.400	181.020	-136.382	694.918	173.605	-450.297	769.156	166.512	-150.437	707.349	161.972	-372.391
	214	1.78333	755.610	762.704	-250.570	763.150	760.719	-180.966	748.070	764.690	-320.173	756.474	424.416	-164.888	738.393	419.179	-323.942	722.103	64.246	-157.811	716.292	65.889	-330.405	825.201	846.715	-255.712	837.157	843.567	-145.343	813.245	849.864	-366.081	648.241	867.848	-204.188	642.311	867.115	-257.121	757.368	427.096	-108.459	733.238	419.932	-379.699	739.799	417.614	-220.283	751.143	421.887	-265.255	716.010	65.554	-120.833	703.699	67.303	-364.635	720.842	60.321	-191.323	717.169	65.536	-296.665	675.691	50.757	-149.060	669.853	46.938	-308.625	790.503	1196.757	-259.377	802.626	1095.478	-265.443	682.484	1261.914	-238.966	799.847	1195.963	-202.955	787.541	1198.218	-310.354	806.095	48.204	-144.821	804.296	44.805	-351.414	889.883	556.471	-154.055	855.994	573.785	-396.041	841.209	600.235	-118.903	842.766	615.208	-326.054	826.057	544.523	-117.165	831.296	558.078	-321.662	846.437	181.046	-136.403	694.893	173.587	-450.270	768.867	166.380	-150.483	707.291	162.004	-372.299
